# File created by Blade
# Date/Time:  Wed Apr 08 14:55:03 2015
# Frame Rate: 120.000 fps
#------------------------------------------------------
:FULLY-SPECIFIED
:DEGREES
685
root 4.122926 34.236088 -0.428655 -53.537870 55.279374 -81.761825
Spine -1.861690 4.336966 16.470517
Head -39.862073 -44.079096 63.255129
LeftShoulder -18.324336 46.828039 16.456925
LeftArm 55.943937 7.611332 -65.483204
LeftForeArm -6.593050 0.000000 131.235838
LeftHand 10.123565 -0.000000 8.197488
LeftHandThumb1 -26.253704 0.000000 33.147579
RightShoulder -1.086599 7.192037 -15.824096
RightArm 29.369043 -28.937079 83.391875
RightForeArm 8.250228 -0.000000 105.495211
RightHand 13.430423 -0.000000 -15.289844
RightHandThumb1 -24.326973 -0.000000 -32.862282
LeftUpLeg -30.465853 -1.258811 39.478202
LeftLeg 15.335074 -0.000000 -0.000000
LeftFoot -7.873659 15.008670 -10.650300
LeftToeBase -3.545471 -0.000000 0.000000
RightUpLeg -60.281751 -20.560439 -0.178136
RightLeg 77.755858 -0.000000 -0.000000
RightFoot 26.604797 -5.929467 5.490912
RightToeBase 19.326946 -0.000000 -0.000000
686
root 4.179173 34.203892 -0.365564 -53.279565 55.976448 -81.300014
Spine -2.185776 4.379413 15.851018
Head -40.023079 -44.570979 62.977475
LeftShoulder -18.584554 46.954407 16.078783
LeftArm 55.158910 7.856450 -65.006417
LeftForeArm -6.735457 -0.000000 130.917037
LeftHand 10.147111 -0.000000 8.115279
LeftHandThumb1 -26.253704 0.000000 33.147579
RightShoulder -1.442043 6.798780 -15.759148
RightArm 29.388194 -29.562609 82.841073
RightForeArm 8.113759 -0.000000 105.713809
RightHand 13.542632 -0.000000 -15.258405
RightHandThumb1 -24.326973 -0.000000 -32.862282
LeftUpLeg -30.367048 -1.591790 38.864466
LeftLeg 15.354861 -0.000000 -0.000000
LeftFoot -8.073552 14.980167 -10.840922
LeftToeBase -3.645688 -0.000000 0.000000
RightUpLeg -59.140434 -19.258422 0.613026
RightLeg 75.612343 -0.000000 -0.000000
RightFoot 26.829920 -5.590876 6.078417
RightToeBase 18.821445 -0.000000 -0.000000
687
root 4.235368 34.180639 -0.295905 -53.001862 56.570986 -80.825382
Spine -2.488714 4.424065 15.310120
Head -40.092787 -45.001613 62.677314
LeftShoulder -18.908936 47.090541 15.672254
LeftArm 54.459101 8.118966 -64.560535
LeftForeArm -6.608569 -0.000000 130.579070
LeftHand 10.159817 -0.000000 8.037140
LeftHandThumb1 -26.253704 0.000000 33.147579
RightShoulder -1.716270 6.409884 -15.654270
RightArm 29.363928 -30.126660 82.354698
RightForeArm 7.952651 -0.000000 105.942549
RightHand 13.623329 0.000000 -15.121194
RightHandThumb1 -24.326973 -0.000000 -32.862282
LeftUpLeg -30.208223 -1.834644 38.319909
LeftLeg 15.339845 -0.000000 -0.000000
LeftFoot -8.184483 14.959380 -10.887026
LeftToeBase -3.720283 -0.000000 0.000000
RightUpLeg -57.948570 -17.923442 1.490176
RightLeg 73.243780 -0.000000 -0.000000
RightFoot 26.978834 -5.450879 6.398232
RightToeBase 17.949266 -0.000000 -0.000000
688
root 4.287191 34.161863 -0.222562 -52.626206 57.089737 -80.239818
Spine -2.755624 4.523078 14.783405
Head -40.111809 -45.423479 62.399850
LeftShoulder -19.161557 47.205783 15.389364
LeftArm 53.747069 8.408455 -64.212637
LeftForeArm -6.163954 -0.000000 130.259532
LeftHand 10.180395 -0.000000 7.930118
LeftHandThumb1 -26.253704 0.000000 33.147579
RightShoulder -1.942598 6.036412 -15.520401
RightArm 29.310802 -30.678931 81.853678
RightForeArm 7.700531 -0.000000 106.203746
RightHand 13.571563 -0.000000 -15.176868
RightHandThumb1 -24.326973 -0.000000 -32.862282
LeftUpLeg -30.005739 -2.035562 37.814476
LeftLeg 15.345299 -0.000000 -0.000000
LeftFoot -8.309260 14.975631 -10.950674
LeftToeBase -3.785746 -0.000000 0.000000
RightUpLeg -56.723759 -16.548346 2.376399
RightLeg 70.718799 -0.000000 -0.000000
RightFoot 27.005579 -5.400149 6.608515
RightToeBase 16.421234 -0.000000 -0.000000
689
root 4.337670 34.145801 -0.143553 -52.246586 57.544958 -79.679116
Spine -3.047859 4.563700 14.322602
Head -39.971961 -45.819690 62.032169
LeftShoulder -19.525305 47.435932 15.041787
LeftArm 53.205357 8.657639 -63.909655
LeftForeArm -5.532614 0.000000 129.951426
LeftHand 10.034832 -0.000000 7.775689
LeftHandThumb1 -26.253704 0.000000 33.147579
RightShoulder -2.077997 5.728984 -15.393245
RightArm 29.128805 -31.152587 81.469391
RightForeArm 7.466899 -0.000000 106.475378
RightHand 13.405633 -0.000000 -14.989490
RightHandThumb1 -24.326973 -0.000000 -32.862282
LeftUpLeg -29.798878 -2.147756 37.347024
LeftLeg 15.333273 -0.000000 -0.000000
LeftFoot -8.367155 14.998714 -10.880186
LeftToeBase -3.935449 -0.000000 0.000000
RightUpLeg -55.468916 -15.213779 3.292893
RightLeg 68.065111 -0.000000 -0.000000
RightFoot 26.805903 -5.519373 7.126454
RightToeBase 14.508131 -0.000000 -0.000000
690
root 4.392720 34.127761 -0.061335 -51.932953 58.015895 -79.225481
Spine -3.401709 4.480922 13.897351
Head -39.700640 -46.226784 61.586400
LeftShoulder -19.915188 47.726057 14.697140
LeftArm 52.681460 8.889569 -63.744534
LeftForeArm -4.717364 0.000000 129.631278
LeftHand 9.997100 -0.000000 7.296889
LeftHandThumb1 -26.253704 0.000000 33.147579
RightShoulder -2.155113 5.372796 -15.340700
RightArm 28.953922 -31.618658 81.130385
RightForeArm 7.381286 0.000000 106.708963
RightHand 13.305359 -0.000000 -14.900966
RightHandThumb1 -24.326973 -0.000000 -32.862282
LeftUpLeg -29.634135 -2.344713 36.931165
LeftLeg 15.303643 -0.000000 -0.000000
LeftFoot -8.485179 15.075807 -10.878468
LeftToeBase -3.955303 -0.000000 0.000000
RightUpLeg -54.194059 -14.048330 4.189562
RightLeg 65.344804 -0.000000 -0.000000
RightFoot 26.415351 -5.814337 8.173155
RightToeBase 12.770832 -0.000000 -0.000000
691
root 4.447018 34.109791 0.023506 -51.652391 58.419330 -78.800945
Spine -3.746902 4.380462 13.569600
Head -39.334195 -46.626582 61.039962
LeftShoulder -20.278434 48.087078 14.356098
LeftArm 52.229227 9.122096 -63.609484
LeftForeArm -3.940337 -0.000000 129.323828
LeftHand 9.974198 -0.000000 7.060293
LeftHandThumb1 -26.253704 0.000000 33.147579
RightShoulder -2.162360 5.083276 -15.358135
RightArm 28.657738 -32.028422 80.936867
RightForeArm 7.426064 0.000000 106.919656
RightHand 13.286930 -0.000000 -14.738502
RightHandThumb1 -24.326973 -0.000000 -32.862282
LeftUpLeg -29.453363 -2.510961 36.578551
LeftLeg 15.303285 -0.000000 -0.000000
LeftFoot -8.623649 15.141959 -10.912147
LeftToeBase -4.003329 -0.000000 0.000000
RightUpLeg -52.869913 -12.912073 5.076297
RightLeg 62.539916 -0.000000 -0.000000
RightFoot 25.926880 -6.277729 9.740696
RightToeBase 11.179030 -0.000000 -0.000000
692
root 4.501959 34.089235 0.109166 -51.520804 58.837776 -78.500806
Spine -4.062851 4.146769 13.315521
Head -38.903744 -47.070346 60.418916
LeftShoulder -20.684413 48.543214 13.944102
LeftArm 51.897907 9.256877 -63.520818
LeftForeArm -3.204417 -0.000000 129.019619
LeftHand 9.882522 -0.000000 6.671186
LeftHandThumb1 -26.253704 0.000000 33.147579
RightShoulder -2.105618 4.796733 -15.421542
RightArm 28.377547 -32.430983 80.729368
RightForeArm 7.343677 -0.000000 107.111975
RightHand 13.198163 -0.000000 -14.680613
RightHandThumb1 -24.326973 -0.000000 -32.862282
LeftUpLeg -29.275204 -2.716466 36.260452
LeftLeg 15.296089 -0.000000 -0.000000
LeftFoot -8.763849 15.113408 -10.983890
LeftToeBase -4.081764 -0.000000 0.000000
RightUpLeg -51.480944 -11.944331 5.926031
RightLeg 59.696749 -0.000000 -0.000000
RightFoot 25.552020 -6.730981 11.582179
RightToeBase 9.358689 -0.000000 -0.000000
693
root 4.560950 34.068957 0.195892 -51.500637 59.251032 -78.266644
Spine -4.309990 3.899827 13.125609
Head -38.537011 -47.496057 59.813018
LeftShoulder -21.009858 48.877750 13.556135
LeftArm 51.524350 9.417559 -63.440911
LeftForeArm -2.621043 -0.000000 128.690873
LeftHand 9.880593 -0.000000 6.415943
LeftHandThumb1 -26.253704 0.000000 33.147579
RightShoulder -2.123817 4.471016 -15.515138
RightArm 28.166466 -32.840971 80.520855
RightForeArm 7.351627 0.000000 107.246570
RightHand 13.167378 0.000000 -14.672005
RightHandThumb1 -24.326973 -0.000000 -32.862282
LeftUpLeg -29.056838 -2.952391 35.969017
LeftLeg 15.281040 -0.000000 -0.000000
LeftFoot -8.915306 15.006540 -11.125430
LeftToeBase -4.165985 -0.000000 0.000000
RightUpLeg -50.013191 -11.066792 6.715418
RightLeg 56.829634 -0.000000 -0.000000
RightFoot 25.221722 -7.253366 13.762317
RightToeBase 7.976621 -0.000000 -0.000000
694
root 4.620840 34.047676 0.284452 -51.595090 59.695567 -78.150543
Spine -4.555268 3.593194 12.973674
Head -38.221256 -47.900874 59.175004
LeftShoulder -21.215374 49.148785 13.238450
LeftArm 51.110667 9.585726 -63.384854
LeftForeArm -2.222875 0.000000 128.377716
LeftHand 9.879540 -0.000000 6.313038
LeftHandThumb1 -26.253704 0.000000 33.147579
RightShoulder -2.191854 4.139022 -15.630810
RightArm 28.031628 -33.299368 80.260019
RightForeArm 7.404792 0.000000 107.323686
RightHand 13.250819 -0.000000 -14.722285
RightHandThumb1 -24.326973 -0.000000 -32.862282
LeftUpLeg -28.882866 -3.167075 35.671502
LeftLeg 15.300733 -0.000000 -0.000000
LeftFoot -9.028847 14.779682 -11.304140
LeftToeBase -4.359918 -0.000000 0.000000
RightUpLeg -48.524726 -10.340137 7.452345
RightLeg 53.974247 -0.000000 -0.000000
RightFoot 25.024667 -7.527467 15.781431
RightToeBase 6.202611 -0.000000 -0.000000
